<?xml version="1.0" encoding="utf-8"?>
<!-- Generator: Adobe Illustrator 21.0.0, SVG Export Plug-In . SVG Version: 6.00 Build 0)  -->
<!DOCTYPE svg PUBLIC "-//W3C//DTD SVG 1.1//EN" "http://www.w3.org/Graphics/SVG/1.1/DTD/svg11.dtd">
<svg version="1.1" id="Layer_1" xmlns="http://www.w3.org/2000/svg" xmlns:xlink="http://www.w3.org/1999/xlink" x="0px" y="0px"
	 viewBox="0 0 1030.2 347" style="enable-background:new 0 0 1030.2 347;" xml:space="preserve">
<style type="text/css">
	.st0{fill:#262626;}
</style>
<g>
	<g>
		<path class="st0" d="M350.2,5.1h26.6v6.2h-10v32.3h-6.7V11.3h-10V5.1H350.2z"/>
	</g>
	<g>
		<path class="st0" d="M414.1,27.5h-14.5v16.1h-6.7V5.1h6.7v16.1h14.5V5.1h6.7v38.5h-6.7V27.5z"/>
	</g>
	<g>
		<path class="st0" d="M440.7,5.1h24.5v6.7h-17.9V21H464v6.7h-16.7V37h17.9v6.7h-24.5V5.1z"/>
	</g>
	<g>
		<path class="st0" d="M527.1,4.7c10.8,0,19.6,8.8,19.6,19.6S537.9,44,527.1,44s-19.6-8.8-19.6-19.6S516.2,4.7,527.1,4.7z
			 M527.1,37.2c7,0,12.8-5.8,12.8-12.8s-5.8-12.8-12.8-12.8s-12.8,5.8-12.8,12.8S520,37.2,527.1,37.2z"/>
	</g>
	<g>
		<path class="st0" d="M585.4,27.5H571v16.1h-6.7V5.1h6.7v16.1h14.5V5.1h6.7v38.5h-6.7L585.4,27.5L585.4,27.5z"/>
	</g>
	<g>
		<path class="st0" d="M612,5.1h6.7v38.5H612V5.1z"/>
	</g>
	<g>
		<path class="st0" d="M655.7,4.7c10.8,0,19.6,8.8,19.6,19.6S666.5,44,655.7,44S636,35.2,636,24.4S644.8,4.7,655.7,4.7z M655.7,37.2
			c7,0,12.8-5.8,12.8-12.8s-5.8-12.8-12.8-12.8s-12.8,5.8-12.8,12.8S648.6,37.2,655.7,37.2z"/>
	</g>
</g>
<g>
	<g>
		<path class="st0" d="M106.9,191c-10.8,19-29.5,29.1-50.7,29.1c-29.4,0-53.7-24.7-53.7-54c0-29.2,24.3-54,53.7-54
			c4.4,0,8.4,0.5,13.5,1.2c2.8,0.5,6.6,0.9,10.3,0.9c6.6,0,13.3-0.8,19.6-2.8c0,12,1.7,24.4,6.1,35.2l-1.8,0.6
			c-9.6-16.9-28.3-33-49.3-33c-20.7,0-33.6,11.7-33.6,51.1c0,41.5,25.8,52,38.7,52c18.1,0,36-11.2,45-27.3L106.9,191z M33.6,119.6
			L33.6,119.6c-17,8.3-28.9,27.2-28.9,46.5c0,29.2,25.8,49.2,42.3,50.8v-0.3c-20.2-8.7-33-28.8-33-50.8
			C13.9,149.6,20.4,130.3,33.6,119.6z M74.7,116.3v0.3c8.5,3.9,16,9,22.2,16.3l0.3-0.3l-5.7-16.3H74.7z"/>
		<path class="st0" d="M56.2,220.8c-29.5,0-54.5-25.1-54.5-54.7c0-29.7,24.9-54.8,54.5-54.8c4.5,0,8.5,0.5,13.6,1.2
			c3.2,0.6,6.9,0.9,10.2,0.9c7.1,0,13.6-0.9,19.4-2.8c0.2-0.1,0.5,0,0.7,0.1s0.3,0.4,0.3,0.6c0,13.1,2.1,25.2,6,34.9
			c0.1,0.2,0.1,0.4,0,0.6c-0.1,0.2-0.2,0.3-0.4,0.4l-1.8,0.6c-0.3,0.1-0.7,0-0.9-0.3C94,131.3,75.4,115,54.6,115
			c-23,0-32.9,15.1-32.9,50.3c0,40.5,24.8,51.2,38,51.2c17.5,0,35.3-10.8,44.3-26.9c0.2-0.3,0.6-0.5,1-0.3l2.2,1
			c0.2,0.1,0.3,0.3,0.4,0.5s0,0.4-0.1,0.6C96.9,210.1,78.2,220.8,56.2,220.8z M56.2,112.9c-28.7,0-53,24.4-53,53.2
			c0,28.9,24.2,53.2,53,53.2c21.2,0,39.2-10.2,49.6-28L105,191C95.7,207.2,77.5,218,59.7,218c-13.6,0-39.5-11-39.5-52.8
			c0-19.1,3-32.6,9.4-41c-11,11.9-15,29.2-14.9,41.5c0,21.9,12.8,41.6,32.5,50.1c0.3,0.1,0.5,0.4,0.5,0.7v0.3c0,0.2-0.1,0.4-0.2,0.6
			s-0.4,0.2-0.6,0.2C29.4,215.9,4,195,4,166.1c0-19.3,12-38.7,29.2-47.3c0.3-0.1,0.6-0.1,0.9,0.1l0.1,0.1c0.1,0.1,0.2,0.3,0.2,0.5
			c5.2-4.1,11.9-6.1,20.3-6.1c9.9,0,20,3.6,29.4,10.3c8,5.8,15.2,13.8,20.3,22.5l0.5-0.2c-3.8-9.6-5.8-21-5.9-33.7
			c-5.7,1.7-12,2.5-18.9,2.5c-3.4,0-7.2-0.3-10.4-0.9C64.5,113.3,60.6,112.9,56.2,112.9z M28.7,123.2c-13.9,9.3-23.2,26.2-23.2,42.9
			c0,25.7,20.7,45,37.2,49.3c-18-9.6-29.4-28.6-29.4-49.6C13.2,153.2,17.3,135.4,28.7,123.2z M96.9,133.6
			C96.9,133.6,96.9,133.6,96.9,133.6c-0.2,0-0.4-0.1-0.6-0.3c-5.7-6.7-12.8-11.9-21.9-16.1c-0.3-0.1-0.4-0.4-0.4-0.7v-0.3
			c0-0.4,0.3-0.8,0.8-0.8h16.8c0.3,0,0.6,0.2,0.7,0.5l5.7,16.3c0.1,0.3,0,0.6-0.2,0.8l-0.3,0.3C97.3,133.6,97.1,133.6,96.9,133.6z
			 M77.4,117c7.3,3.6,13.3,8,18.2,13.3L91,117H77.4z"/>
	</g>
	<g>
		<path class="st0" d="M216.9,154.9v-30.6c0-2.4-4.3-7.4-7.2-8.2c-1.9-0.6-6-0.6-8.1-0.6v-2.1h46.9v2.1c-1.8,0-3.6,0-5.1,0.4
			c-2.6,0.8-7.9,5.7-7.9,8.7v82.9c0,6.6,7.9,9.3,13.3,9.3v2.1h-46.2v-2.1c8.2,0,14.2-4.5,14.2-9v-46h-56.4V206
			c0,4.9,2.4,8.4,5.4,9.4c2.8,1,8.1,1.3,10.5,1.3v2.1h-46.6v-2.1c6.1-0.3,12.1-5.1,12.1-9.1v-81.3c0-6.6-6.1-10.9-12.9-10.9v-2.1
			H176v2.1h-4.6c-6.3,0-10.9,5.7-10.9,9.3v30.1h56.4V154.9z M153.3,121.9l7.5-6.1v-0.3h-22.9v0.3l8.5,6.6v1.1l-2.4,2.1v84.3
			c0,2.8-4.5,6-6.7,6.7v0.3h23.5v-0.3c-3-2.1-7.5-4.8-7.5-9.1L153.3,121.9L153.3,121.9z M160.5,160h56.4v-3.3h-56.4V160z M235,216.8
			v-0.3c-2.2-0.8-6.7-3.9-6.7-6.7V122c2.2-2.1,5.2-4.6,7.6-6.3v-0.3h-23.4v0.3c3,1.6,5.4,4,7.8,6v1.4l-1.4,0.6v84.1
			c0,5.4-3.6,7.3-5.5,8.7v0.3L235,216.8L235,216.8z"/>
		<path class="st0" d="M248.8,219.7h-46.2c-0.4,0-0.8-0.3-0.8-0.8v-2.1c0-0.4,0.3-0.8,0.8-0.8c7.9,0,13.4-4.3,13.4-8.2v-45.2h-54.9
			V206c0,4.9,2.5,7.9,4.9,8.7c2.6,0.9,7.7,1.3,10.3,1.3c0.4,0,0.8,0.3,0.8,0.8v2.1c0,0.4-0.3,0.8-0.8,0.8h-46.6
			c-0.4,0-0.8-0.3-0.8-0.8v-2.1c0-0.4,0.3-0.7,0.7-0.7c5.9-0.3,11.4-4.9,11.4-8.4v-81.3c0-6.6-6.3-10.1-12.1-10.1
			c-0.4,0-0.8-0.3-0.8-0.8v-2.1c0-0.4,0.3-0.8,0.8-0.8H176c0.4,0,0.8,0.3,0.8,0.8v2.1c0,0.4-0.3,0.8-0.8,0.8h-4.6
			c-5.8,0-10.1,5.2-10.1,8.6V154h54.9v-29.8c0-1.9-4-6.7-6.6-7.5c-1.8-0.6-5.9-0.6-7.9-0.6c-0.4,0-0.8-0.3-0.8-0.8v-2.1
			c0-0.4,0.3-0.8,0.8-0.8h46.9c0.4,0,0.8,0.3,0.8,0.8v2.1c0,0.4-0.3,0.8-0.8,0.8c-1.7,0-3.5,0-4.9,0.4c-2.4,0.7-7.3,5.4-7.3,8v82.9
			c0,6.2,7.7,8.5,12.5,8.5c0.4,0,0.8,0.3,0.8,0.8v2.1C249.5,219.3,249.2,219.7,248.8,219.7z M203.4,218.2H248v-0.6
			c-5.4-0.2-13.3-3-13.3-10v-82.9c0-3.5,5.8-8.6,8.4-9.4c1.4-0.4,3-0.4,4.6-0.4v-0.6h-45.4v0.6c2.3,0,5.8,0.1,7.6,0.6
			c3.2,0.9,7.7,6.1,7.7,8.9v30.6c0,0.4-0.3,0.8-0.8,0.8c-0.1,0-0.3,0-0.4-0.1h-56c-0.4,0-0.8-0.3-0.8-0.8v-30.1
			c0-4,4.9-10.1,11.6-10.1h3.9V114h-45.6v0.6c7.4,0.3,12.9,5.2,12.9,11.6v81.3c0,4.4-6,9.2-12.1,9.8v0.7h45.1v-0.6
			c-2.4-0.1-7.2-0.4-10-1.3c-3.5-1.2-5.9-5.2-5.9-10.1v-44.2c0-0.4,0.3-0.8,0.8-0.8h56.4c0.4,0,0.8,0.3,0.8,0.8v46
			c0,4.6-5.7,9.5-14.2,9.7V218.2z M160.8,217.7h-23.5c-0.4,0-0.8-0.3-0.8-0.8v-0.3c0-0.3,0.2-0.6,0.5-0.7c2.1-0.7,6.2-3.7,6.2-6
			v-84.3c0-0.2,0.1-0.4,0.3-0.6l2.1-1.9v-0.4l-8.2-6.4c-0.2-0.1-0.3-0.4-0.3-0.6v-0.3c0-0.4,0.3-0.8,0.8-0.8h22.9
			c0.4,0,0.8,0.3,0.8,0.8v0.3c0,0.2-0.1,0.4-0.3,0.6l-7.2,5.9v85.2c0,3.5,3.5,6,6.4,7.9l0.8,0.5c0.2,0.1,0.3,0.4,0.3,0.6v0.3
			C161.5,217.3,161.2,217.7,160.8,217.7z M137.3,216.6L137.3,216.6L137.3,216.6z M139.9,216.2h19c-2.9-2-6.3-4.7-6.3-8.7v-85.6
			c0-0.2,0.1-0.4,0.3-0.6l6.2-5.1h-19.4l7.2,5.6c0.2,0.1,0.3,0.4,0.3,0.6v1.1c0,0.2-0.1,0.4-0.3,0.6l-2.1,1.9v84
			C144.8,212.3,142.1,214.7,139.9,216.2z M235,217.5h-21.6c-0.4,0-0.8-0.3-0.8-0.8v-0.3c0-0.2,0.1-0.5,0.3-0.6
			c0.2-0.1,0.4-0.3,0.6-0.5c1.9-1.3,4.5-3.2,4.5-7.6v-84.1c0-0.3,0.2-0.6,0.5-0.7l0.9-0.4V122c-0.5-0.4-0.9-0.8-1.4-1.2
			c-1.8-1.6-3.8-3.3-6-4.5c-0.2-0.1-0.4-0.4-0.4-0.7v-0.3c0-0.4,0.3-0.8,0.8-0.8h23.4c0.4,0,0.8,0.3,0.8,0.8v0.3
			c0,0.2-0.1,0.5-0.3,0.6c-2.2,1.6-5.1,3.9-7.3,6v87.5c0,2.3,4.1,5.2,6.2,6c0.3,0.1,0.5,0.4,0.5,0.7v0.3
			C235.8,217.2,235.4,217.5,235,217.5z M213.4,216.5L213.4,216.5L213.4,216.5z M215.3,216h17.2c-2.3-1.4-4.9-3.8-4.9-6.2V122
			c0-0.2,0.1-0.4,0.2-0.5c1.8-1.8,4.2-3.7,6.2-5.3h-19.3c1.6,1.1,3,2.3,4.4,3.5c0.6,0.5,1.1,1,1.7,1.4c0.2,0.1,0.3,0.4,0.3,0.6v1.4
			c0,0.3-0.2,0.6-0.5,0.7l-0.9,0.4v83.6C219.6,212.3,217.3,214.6,215.3,216z M216.9,160.8h-56.4c-0.4,0-0.8-0.3-0.8-0.8v-3.3
			c0-0.4,0.3-0.8,0.8-0.8h56.4c0.4,0,0.8,0.3,0.8,0.8v3.3C217.6,160.4,217.3,160.8,216.9,160.8z M161.2,159.2h54.9v-1.8h-54.9V159.2
			z"/>
	</g>
	<g>
		<path class="st0" d="M325.6,220.1c-29.8,0-54.9-23.8-54.9-54c0-30.1,25-54,54.9-54c29.8,0,54.9,23.8,54.9,54
			S355.5,220.1,325.6,220.1z M300.7,120.4h-0.3c-16.2,7.9-27.6,26.8-27.6,45.7s11.4,37.8,27.6,45.7h0.3
			c-12.7-11.8-18.6-27.6-18.6-45.7S288,132.2,300.7,120.4z M290.2,166.1c0,27.9,8.2,51.9,35.5,51.9s35.5-24,35.5-51.9
			c0-24.9-5.5-51.9-35.5-51.9C295.8,114.2,290.2,141.2,290.2,166.1z M347.1,118.6l-0.3,0.3c13.6,9.7,16.6,29.1,16.6,47.2
			c0,20.5-3.7,35.5-15.6,46.3l0.3,0.3c13.2-7.5,25.2-23.1,25.2-46.6C373.3,142.7,361.6,124.6,347.1,118.6z"/>
		<path class="st0" d="M325.6,220.8c-30.7,0-55.6-24.6-55.6-54.7c0-30.2,25-54.8,55.6-54.8s55.6,24.6,55.6,54.8
			C381.2,196.3,356.3,220.8,325.6,220.8z M325.6,112.9c-29.9,0-54.1,23.9-54.1,53.2c0,29.4,24.3,53.2,54.1,53.2s54.1-23.9,54.1-53.2
			C379.8,136.7,355.5,112.9,325.6,112.9z M325.7,218.8c-23.7,0-36.2-18.2-36.2-52.6c0-35.4,11.9-52.6,36.2-52.6s36.2,17.2,36.2,52.6
			C362,200.5,349.4,218.8,325.7,218.8z M325.7,115c-23.4,0-34.8,16.7-34.8,51.1c0,33.9,11.7,51.1,34.8,51.1s34.8-17.2,34.8-51.1
			C360.5,131.7,349.1,115,325.7,115z M348.1,213.5c-0.2,0-0.4-0.1-0.5-0.2l-0.3-0.3c-0.1-0.1-0.2-0.3-0.2-0.5s0.1-0.4,0.2-0.5
			c10.8-9.8,15.4-23.4,15.4-45.7c0-23.5-5.3-38.8-16.3-46.6c-0.2-0.1-0.3-0.3-0.3-0.5c0-0.2,0.1-0.4,0.2-0.6l0.3-0.3
			c0.2-0.2,0.5-0.3,0.8-0.2c15.9,6.6,26.7,26,26.7,48.2c0,20.5-9.6,38.2-25.6,47.3C348.4,213.4,348.2,213.5,348.1,213.5z
			 M350.9,121.3c8.9,8.7,13.3,23.4,13.3,44.8c0,20.3-3.8,33.6-12.4,43.4c13.1-9.4,20.8-25.2,20.8-43.4
			C372.5,146.4,364,129.1,350.9,121.3z M300.7,212.5h-0.3c-0.1,0-0.2,0-0.3-0.1c-16.5-8-28-27.1-28-46.4c0-19.3,11.5-38.3,28-46.4
			c0.1,0,0.2-0.1,0.3-0.1h0.3c0.3,0,0.6,0.2,0.7,0.5c0.1,0.3,0,0.6-0.2,0.8c-12.2,11.3-18.4,26.5-18.4,45.2s6.2,33.8,18.4,45.1
			c0.2,0.2,0.3,0.5,0.2,0.8S301,212.5,300.7,212.5z M296.8,123.3c-13.9,8.7-23.2,25.7-23.2,42.8c0,17.1,9.4,34.1,23.2,42.8
			c-10.3-11.2-15.4-25.6-15.4-42.8C281.4,148.8,286.5,134.5,296.8,123.3z"/>
	</g>
	<g>
		<path class="st0" d="M401.8,218.9v-2.1c1.8,0,3.8-0.1,5.5-0.9c4-1.7,7.9-6.8,7.9-9v-84c0-0.8-5.2-7.3-8.1-7.3
			c-1.8,0-3.6-0.1-5.4-0.1v-2.1h36.4c3.5,0,7.2-0.3,11.2-0.6c3.9-0.3,8.1-0.6,12.3-0.6c19.6,0,34.8,12.1,34.8,32.2
			c0,21.7-17.8,32.1-38.1,32.1c-10.3,0-16.2-2.1-24.4-5.2v35.2c0,5.9,5.1,10.3,10.6,10.3h2.9v2.1L401.8,218.9L401.8,218.9z
			 M434.4,216.8v-0.3l-5-3.6c-1.6-1.2-2.5-3.3-2.5-5.8v-85.8l8.4-5.5v-0.3h-22.5v0.3c2.4,1.4,5.4,3.8,7.5,5.8v2.2l-2.9,1.6v82
			c0,4-3.6,7-5.7,9v0.3h22.7V216.8z M434.1,168.8c7,2.9,14.2,5.5,21.7,5.5c14.1,0,22.5-14.1,22.5-30.7c0-14.4-8.7-29.4-22.3-29.4
			c-4.2,0-11.5,0.6-14.5,1.5c-2.5,0.8-7.3,5.4-7.3,9.4v43.7H434.1z M465.3,114.5l-0.3,0.3c8.2,3.3,15.4,14.7,15.4,29.1
			c0,12.3-3.9,23.1-14.1,29.5l0.3,0.3c14.7-3,24-14.7,24-30.1C490.6,129.5,479.5,116,465.3,114.5z"/>
		<path class="st0" d="M447.4,219.7h-45.6c-0.4,0-0.8-0.3-0.8-0.8v-2.1c0-0.4,0.3-0.8,0.8-0.8c1.8,0,3.6-0.1,5.2-0.8
			c3.8-1.6,7.5-6.4,7.5-8.3V123c-0.4-1-5-6.6-7.4-6.6c-0.9,0-1.8,0-2.7-0.1c-0.9,0-1.8,0-2.7,0c-0.4,0-0.8-0.3-0.8-0.8v-2.1
			c0-0.4,0.3-0.8,0.8-0.8h36.4c3.2,0,6.6-0.3,10.3-0.5l0.9-0.1c4-0.3,8.2-0.6,12.4-0.6c20.9,0,35.5,13.5,35.5,32.9
			c0,10.4-4.1,18.9-11.7,24.8c-6.8,5.2-16.5,8.1-27.1,8.1c-9.9,0-15.6-1.8-23.6-4.9v34.1c0,5.2,4.5,9.5,9.9,9.5h2.9
			c0.4,0,0.8,0.3,0.8,0.8v2.1C448.1,219.3,447.8,219.7,447.4,219.7z M402.5,218.2h44.1v-0.6h-2.1c-6.2,0-11.4-5.1-11.4-11v-35.2
			c0-0.2,0.1-0.5,0.3-0.6c0.2-0.1,0.5-0.2,0.7-0.1c8.4,3.2,14.1,5.2,24.1,5.2c17.2,0,37.4-8.2,37.4-31.4c0-18.8-13.7-31.4-34-31.4
			c-4.1,0-8.3,0.3-12.2,0.6l-0.9,0.1c-3.7,0.3-7.1,0.5-10.4,0.5h-35.6v0.6c0.7,0,1.3,0,2,0c0.9,0,1.8,0,2.7,0c3.2,0,8.9,6.8,8.9,8
			v84c0,2.6-4.2,7.9-8.4,9.7c-1.6,0.7-3.3,0.9-5,1V218.2z M434.4,217.5c-0.1,0-0.3,0-0.4-0.1h-22.3c-0.4,0-0.8-0.3-0.8-0.8v-0.3
			c0-0.2,0.1-0.4,0.2-0.5l0.6-0.5c2.1-1.9,4.9-4.6,4.9-7.9v-82c0-0.3,0.1-0.5,0.4-0.7l2.5-1.4v-1.4c-1.9-1.8-4.8-4.1-7.1-5.5
			c-0.2-0.1-0.4-0.4-0.4-0.6v-0.3c0-0.4,0.3-0.8,0.8-0.8h22.5c0.4,0,0.8,0.3,0.8,0.8v0.3c0,0.3-0.1,0.5-0.3,0.6l-8.1,5.3v85.4
			c0,2.3,0.8,4.2,2.2,5.2l5,3.6c0.2,0.1,0.3,0.4,0.3,0.6v0.3C435.1,217.2,434.8,217.5,434.4,217.5z M411.7,216.4L411.7,216.4
			L411.7,216.4z M413.3,216h19.1l-3.4-2.4c-1.8-1.3-2.8-3.7-2.8-6.4v-85.8c0-0.3,0.1-0.5,0.3-0.6l6.8-4.4h-18.3
			c1.9,1.3,4.1,3.1,5.9,4.8c0.1,0.1,0.2,0.3,0.2,0.5v2.2c0,0.3-0.1,0.5-0.4,0.7l-2.5,1.4v81.6C418.1,211.1,415.4,214,413.3,216z
			 M455.8,175c-7.9,0-15.5-2.9-22-5.6c-0.3-0.1-0.5-0.5-0.4-0.8c0-0.1,0-0.2,0.1-0.2v-43.3c0-4.4,5.1-9.3,7.8-10.1
			c3.2-1,10.7-1.5,14.7-1.5c14.2,0,23,15.6,23,30.1C479,162.1,469.5,175,455.8,175z M435,168.3c6.2,2.6,13.4,5.2,20.8,5.2
			c12.8,0,21.8-12.3,21.8-29.9c0-13.8-8.2-28.6-21.5-28.6c-4.4,0-11.5,0.6-14.3,1.5c-2.3,0.7-6.8,5.1-6.8,8.7V168.3z M466.6,174.5
			c-0.2,0-0.4-0.1-0.5-0.2l-0.3-0.3c-0.2-0.2-0.2-0.4-0.2-0.6c0-0.2,0.2-0.4,0.3-0.6c9.1-5.7,13.7-15.4,13.7-28.9
			c0-14.7-7.5-25.4-14.9-28.4c-0.2-0.1-0.4-0.3-0.5-0.5c-0.1-0.2,0-0.5,0.2-0.7l0.3-0.3c0.2-0.2,0.4-0.2,0.6-0.2
			c14.3,1.5,26,14.9,26,29.8c0,15.7-9.7,27.8-24.6,30.8C466.7,174.4,466.6,174.5,466.6,174.5z M468.5,115.8
			c8.3,5.5,12.6,17.7,12.6,28.1c0,12.7-4,22.2-11.9,28.4c12.8-3.8,20.6-14.5,20.6-28.7C489.9,130.6,480.6,118.8,468.5,115.8z"/>
	</g>
	<g>
		<path class="st0" d="M562.5,181.6l2.7-0.3c4,14.2,17.1,36.7,33.9,36.7c15,0,25-9.9,25-25.9c0-26.8-56.5-17.1-56.5-51.7
			c0-18.1,16.8-28.2,33.3-28.2c3,0,5.8,0.3,8.7,0.5c3,0.3,5.8,0.6,8.7,0.6c3.6,0,7-0.3,10.8-1.1c0.4,8.7,1.9,21,3.1,29.5l-2.1,0.8
			c-5.8-11.8-14.2-28.2-29.5-28.2c-11.5,0-19.9,6.9-19.9,17.2c0,28.2,56.1,14.5,56.1,53.1c0,24.3-20.1,35.5-42.1,35.5
			c-11.7,0-21.4-2-28.8-4.2L562.5,181.6z M570,214.6c4.8,1.6,11.8,2.8,17.7,3v-0.3c-7.5-2.8-15-9.1-20.2-16.9h-0.3
			c0,3.8,0,7.5,0.3,11.2C567.6,213.7,568.6,214.1,570,214.6z M619.2,211.9l0.3,0.3c7.5-5,12.4-14.7,12.4-24.4
			c0-36-56.1-23.5-56.1-51.1c0-8.4,4.6-14.8,8.7-18.4v-0.5c-8.4,3.6-14.8,13.3-14.8,21.9c0,16.6,13.6,22.5,28.3,27.9
			c13.2,4.8,28.2,8.8,28.2,26.1C626.2,200.6,623.4,207.1,619.2,211.9z M622.8,115.3h-3.4c-2.9,0-5.5-0.6-8.2-0.9l-0.3,0.3
			c6.4,2.7,10.9,8.5,14.7,14.4l0.3-0.3L622.8,115.3z"/>
		<path class="st0" d="M594.7,220.8c-9.8,0-19.6-1.4-29-4.2c-0.3-0.1-0.5-0.3-0.5-0.6l-3.4-34.3c0-0.4,0.3-0.8,0.7-0.8l2.7-0.3
			c0.4,0,0.7,0.2,0.8,0.5c1.7,6.2,5.8,15.6,12,23.4c4.6,5.8,12,12.7,21.2,12.7c14.7,0,24.2-9.9,24.2-25.2c0-12-12.2-16.5-25.1-21.2
			c-14.7-5.4-31.4-11.5-31.4-30.5c0-18.8,17.5-28.9,34.1-28.9c2.3,0,4.5,0.2,6.6,0.3c0.7,0.1,1.5,0.1,2.2,0.2l0.6,0.1
			c2.8,0.3,5.4,0.5,8.1,0.5c3.8,0,7.1-0.3,10.6-1.1c0.2,0,0.4,0,0.6,0.1c0.2,0.1,0.3,0.3,0.3,0.6c0.5,10.3,2.5,25.1,3.1,29.4
			c0,0.3-0.1,0.7-0.5,0.8l-2.1,0.8c-0.4,0.1-0.8,0-0.9-0.4c-5.4-11.1-13.7-27.8-28.8-27.8c-11.3,0-19.1,6.8-19.1,16.5
			c0,12.5,11.2,16.3,24.3,20.8c14.9,5.1,31.8,11,31.8,32.3c0,11.5-4.5,21-13.1,27.5C616.9,217.7,606.3,220.8,594.7,220.8z
			 M566.6,215.3c9.2,2.7,18.6,4,28.1,4c19.1,0,41.3-9.1,41.3-34.8c0-20.3-15.7-25.7-30.8-30.9c-13-4.5-25.3-8.7-25.3-22.2
			c0-10.6,8.5-18,20.6-18c15.8,0,24.6,17.2,29.9,28l0.9-0.3c-0.7-4.8-2.5-18.2-3-28.1c-3.3,0.6-6.5,0.9-10.1,0.9
			c-2.8,0-5.4-0.3-8.2-0.5l-0.5-0.1c-0.7,0-1.4-0.1-2.2-0.2c-2.1-0.2-4.2-0.3-6.4-0.3c-15.8,0-32.6,9.6-32.6,27.4
			c0,17.9,15.5,23.6,30.5,29.1c13.4,4.9,26,9.6,26,22.6c0,16.2-10.1,26.7-25.8,26.7c-16.4,0-29.9-21.2-34.4-36.6l-1.3,0.1
			L566.6,215.3z M587.7,218.3C587.7,218.3,587.7,218.3,587.7,218.3c-6-0.2-13-1.4-17.9-3c0,0,0,0,0,0c-1.3-0.5-2.9-1-3-3.7
			c-0.3-3.7-0.3-7.4-0.3-11.2c0-0.4,0.3-0.8,0.8-0.8h0.3c0.3,0,0.5,0.1,0.6,0.3c5.1,7.7,12.5,13.9,19.8,16.6
			c0.3,0.1,0.5,0.4,0.5,0.7v0.3c0,0.2-0.1,0.4-0.2,0.5C588.1,218.3,587.9,218.3,587.7,218.3z M570.2,213.9c3.9,1.3,9.1,2.3,14.1,2.7
			c-6-3-11.9-8.1-16.4-14.3c0,3.1,0,6.1,0.3,9.2C568.3,213.2,569,213.4,570.2,213.9z M619.5,213c-0.2,0-0.4-0.1-0.5-0.2l-0.3-0.3
			c-0.3-0.3-0.3-0.7,0-1c4.3-4.9,6.8-11.4,6.8-17.7c0-15.5-12.6-20-24.8-24.4c-1-0.3-1.9-0.7-2.9-1c-15.8-5.8-28.8-11.9-28.8-28.6
			c0-9,6.7-18.9,15.3-22.6c0.2-0.1,0.5-0.1,0.7,0.1c0.2,0.1,0.3,0.4,0.3,0.6v0.5c0,0.2-0.1,0.4-0.3,0.6c-2.5,2.2-8.4,8.4-8.4,17.8
			c0,12.3,12,16.4,24.8,20.7c14.7,5,31.3,10.6,31.3,30.4c0,10-5,19.9-12.7,25C619.8,212.9,619.6,213,619.5,213z M581.4,120.3
			c-6.4,4.3-11,12.1-11,19.4c0,15.7,12.6,21.6,27.8,27.2c0.9,0.3,1.9,0.7,2.9,1c12.7,4.5,25.8,9.2,25.8,25.8
			c0,5.3-1.6,10.6-4.6,15.2c5.4-5.2,8.8-13.2,8.8-21.1c0-18.7-15.4-23.9-30.3-28.9c-13.3-4.5-25.8-8.7-25.8-22.2
			C575,129.2,578.5,123.7,581.4,120.3z M625.6,129.9C625.6,129.9,625.5,129.8,625.6,129.9c-0.3,0-0.5-0.2-0.6-0.3
			c-3.5-5.5-8-11.4-14.4-14.1c-0.2-0.1-0.4-0.3-0.4-0.5c0-0.2,0-0.5,0.2-0.7l0.3-0.3c0.2-0.2,0.4-0.2,0.6-0.2
			c0.9,0.1,1.8,0.2,2.7,0.4c1.7,0.3,3.6,0.5,5.5,0.5h3.4c0.3,0,0.7,0.2,0.7,0.6l3.1,13.5c0.1,0.3,0,0.5-0.2,0.7l-0.3,0.3
			C626,129.8,625.8,129.9,625.6,129.9z M614.2,115.6c4.2,2.6,7.6,6.6,10.3,10.5l-2.3-10.1h-2.8C617.6,116,615.9,115.8,614.2,115.6z"
			/>
	</g>
	<g>
		<path class="st0" d="M747.4,154.9v-30.6c0-2.4-4.3-7.4-7.2-8.2c-1.9-0.6-6-0.6-8.1-0.6v-2.1H779v2.1c-1.8,0-3.6,0-5.1,0.4
			c-2.5,0.8-7.9,5.7-7.9,8.7v82.9c0,6.6,7.9,9.3,13.3,9.3v2.1h-46.2v-2.1c8.2,0,14.2-4.5,14.2-9v-46H691V206c0,4.9,2.4,8.4,5.4,9.4
			c2.8,1,8.1,1.3,10.5,1.3v2.1h-46.6v-2.1c6.1-0.3,12.1-5.1,12.1-9.1v-81.3c0-6.6-6.1-10.9-12.9-10.9v-2.1h47.1v2.1H702
			c-6.3,0-10.9,5.7-10.9,9.3v30.1h56.3V154.9z M683.8,121.9l7.5-6.1v-0.3h-22.9v0.3l8.5,6.6v1.1l-2.4,2.1v84.3c0,2.8-4.5,6-6.7,6.7
			v0.3h23.5v-0.3c-3-2.1-7.5-4.8-7.5-9.1L683.8,121.9L683.8,121.9z M691,160h56.4v-3.3H691V160z M765.6,216.8v-0.3
			c-2.2-0.8-6.7-3.9-6.7-6.7V122c2.2-2.1,5.2-4.6,7.6-6.3v-0.3h-23.4v0.3c3,1.6,5.4,4,7.8,6v1.4l-1.4,0.6v84.1
			c0,5.4-3.6,7.3-5.5,8.7v0.3L765.6,216.8L765.6,216.8z"/>
		<path class="st0" d="M779.3,219.7h-46.2c-0.4,0-0.8-0.3-0.8-0.8v-2.1c0-0.4,0.3-0.8,0.8-0.8c7.9,0,13.5-4.3,13.5-8.2v-45.2h-54.8
			V206c0,4.9,2.5,7.9,4.9,8.7c2.6,0.9,7.7,1.3,10.3,1.3c0.4,0,0.8,0.3,0.8,0.8v2.1c0,0.4-0.3,0.8-0.8,0.8h-46.6
			c-0.4,0-0.8-0.3-0.8-0.8v-2.1c0-0.4,0.3-0.7,0.7-0.7c5.9-0.3,11.4-4.9,11.4-8.4v-81.3c0-6.6-6.3-10.1-12.2-10.1
			c-0.4,0-0.8-0.3-0.8-0.8v-2.1c0-0.4,0.3-0.8,0.8-0.8h47.1c0.4,0,0.8,0.3,0.8,0.8v2.1c0,0.4-0.3,0.8-0.8,0.8H702
			c-5.8,0-10.2,5.2-10.2,8.6V154h54.8v-29.8c0-1.9-4-6.7-6.6-7.5c-1.8-0.6-5.9-0.6-7.9-0.6c-0.4,0-0.8-0.3-0.8-0.8v-2.1
			c0-0.4,0.3-0.8,0.8-0.8H779c0.4,0,0.8,0.3,0.8,0.8v2.1c0,0.4-0.3,0.8-0.8,0.8c-1.7,0-3.5,0-4.9,0.4c-2.3,0.8-7.3,5.5-7.3,8v82.9
			c0,6.2,7.7,8.5,12.5,8.5c0.4,0,0.8,0.3,0.8,0.8v2.1C780,219.3,779.7,219.7,779.3,219.7z M733.8,218.2h44.7v-0.6
			c-5.4-0.2-13.3-3-13.3-10v-82.9c0-3.5,5.8-8.6,8.4-9.4c1.4-0.4,3-0.4,4.6-0.4v-0.6h-45.4v0.6c2.3,0,5.8,0.1,7.6,0.6
			c3.2,0.9,7.7,6.1,7.7,8.9v30.6c0,0.4-0.3,0.8-0.8,0.8c-0.1,0-0.3,0-0.4-0.1h-55.9c-0.4,0-0.8-0.3-0.8-0.8v-30.1
			c0-4,4.9-10.1,11.7-10.1h3.8V114h-45.6v0.6c7.4,0.3,12.9,5.2,12.9,11.6v81.3c0,4.4-6,9.2-12.1,9.8v0.7h45.1v-0.6
			c-2.4-0.1-7.2-0.4-10-1.3c-3.5-1.2-5.9-5.2-5.9-10.1v-44.2c0-0.4,0.3-0.8,0.8-0.8h56.3c0.4,0,0.8,0.3,0.8,0.8v46
			c0,4.6-5.7,9.5-14.2,9.7V218.2z M691.3,217.7h-23.5c-0.4,0-0.8-0.3-0.8-0.8v-0.3c0-0.3,0.2-0.6,0.5-0.7c2.1-0.7,6.2-3.7,6.2-6
			v-84.3c0-0.2,0.1-0.4,0.3-0.6l2.1-1.9v-0.4l-8.2-6.4c-0.2-0.1-0.3-0.4-0.3-0.6v-0.3c0-0.4,0.3-0.8,0.8-0.8h22.9
			c0.4,0,0.8,0.3,0.8,0.8v0.3c0,0.2-0.1,0.4-0.3,0.6l-7.2,5.9v85.2c0,3.5,3.5,6,6.4,7.9l0.8,0.5c0.2,0.1,0.3,0.4,0.3,0.6v0.3
			C692,217.3,691.7,217.7,691.3,217.7z M667.8,216.6L667.8,216.6L667.8,216.6z M670.4,216.2h19c-2.9-2-6.3-4.7-6.3-8.7v-85.6
			c0-0.2,0.1-0.4,0.3-0.6l6.2-5.1h-19.4l7.2,5.6c0.2,0.1,0.3,0.4,0.3,0.6v1.1c0,0.2-0.1,0.4-0.3,0.6l-2.1,1.9v84
			C675.2,212.3,672.6,214.7,670.4,216.2z M765.6,217.5H744c-0.4,0-0.8-0.3-0.8-0.8v-0.3c0-0.2,0.1-0.5,0.3-0.6
			c0.2-0.1,0.4-0.3,0.6-0.5c1.9-1.3,4.5-3.2,4.5-7.6v-84.1c0-0.3,0.2-0.6,0.5-0.7l0.9-0.4V122c-0.5-0.4-0.9-0.8-1.4-1.2
			c-1.8-1.6-3.8-3.3-6-4.5c-0.2-0.1-0.4-0.4-0.4-0.7v-0.3c0-0.4,0.3-0.8,0.8-0.8h23.4c0.4,0,0.8,0.3,0.8,0.8v0.3
			c0,0.2-0.1,0.5-0.3,0.6c-2.2,1.6-5.1,3.9-7.3,6v87.5c0,2.3,4.1,5.2,6.2,6c0.3,0.1,0.5,0.4,0.5,0.7v0.3
			C766.3,217.2,766,217.5,765.6,217.5z M744,216.5L744,216.5L744,216.5z M745.9,216h17.2c-2.3-1.4-4.9-3.8-4.9-6.2V122
			c0-0.2,0.1-0.4,0.2-0.5c1.8-1.8,4.2-3.7,6.2-5.3h-19.3c1.6,1.1,3,2.3,4.4,3.5c0.6,0.5,1.1,1,1.7,1.4c0.2,0.1,0.3,0.4,0.3,0.6v1.4
			c0,0.3-0.2,0.6-0.5,0.7l-0.9,0.4v83.6C750.2,212.3,747.9,214.6,745.9,216z M747.4,160.8H691c-0.4,0-0.8-0.3-0.8-0.8v-3.3
			c0-0.4,0.3-0.8,0.8-0.8h56.4c0.4,0,0.8,0.3,0.8,0.8v3.3C748.2,160.4,747.8,160.8,747.4,160.8z M691.8,159.2h54.9v-1.8h-54.9V159.2
			z"/>
	</g>
	<g>
		<path class="st0" d="M856.2,220.1c-29.8,0-54.9-23.8-54.9-54c0-30.1,25-54,54.9-54c29.8,0,54.9,23.8,54.9,54
			C911.1,196.3,886,220.1,856.2,220.1z M831.3,120.4H831c-16.2,7.9-27.6,26.8-27.6,45.7s11.4,37.8,27.6,45.7h0.3
			c-12.7-11.8-18.6-27.6-18.6-45.7S818.5,132.2,831.3,120.4z M820.8,166.1c0,27.9,8.2,51.9,35.5,51.9s35.5-24,35.5-51.9
			c0-24.9-5.5-51.9-35.5-51.9C826.3,114.2,820.8,141.2,820.8,166.1z M877.6,118.6l-0.3,0.3C891,128.6,894,148,894,166.1
			c0,20.5-3.7,35.5-15.6,46.3l0.3,0.3c13.2-7.5,25.2-23.1,25.2-46.6C903.9,142.7,892.2,124.6,877.6,118.6z"/>
		<path class="st0" d="M856.2,220.8c-30.7,0-55.7-24.6-55.7-54.7c0-30.2,25-54.8,55.7-54.8s55.6,24.6,55.6,54.8
			C911.8,196.3,886.9,220.8,856.2,220.8z M856.2,112.9c-29.9,0-54.2,23.9-54.2,53.2c0,29.4,24.3,53.2,54.2,53.2s54.1-23.9,54.1-53.2
			C910.3,136.7,886.1,112.9,856.2,112.9z M856.3,218.8c-23.7,0-36.2-18.2-36.2-52.6c0-35.4,11.9-52.6,36.2-52.6
			c8.2,0,15,1.9,20.4,5.9c-0.1-0.1-0.1-0.2-0.1-0.4c0-0.2,0.1-0.4,0.2-0.6l0.3-0.3c0.2-0.2,0.5-0.3,0.8-0.2
			c13.3,5.5,26.8,22.5,26.8,48.2c0,20.5-9.6,38.2-25.6,47.3c-0.3,0.2-0.7,0.1-0.9-0.1l-0.3-0.3c-0.1-0.1-0.2-0.3-0.2-0.5
			s0.1-0.4,0.2-0.5c10.8-9.8,15.4-23.4,15.4-45.7c0-22.7-5-37.7-15.2-45.7c9.7,8.1,14.5,23.2,14.5,45.7
			C892.5,200.5,880,218.8,856.3,218.8z M856.3,115c-23.4,0-34.8,16.7-34.8,51.1c0,33.9,11.7,51.1,34.8,51.1S891,200,891,166.1
			C891,131.7,879.7,115,856.3,115z M881.4,121.3c9,8.7,13.4,23.4,13.4,44.8c0,20.3-3.8,33.6-12.4,43.4c13.1-9.4,20.8-25.2,20.8-43.4
			C903.2,146.4,894.6,129.1,881.4,121.3z M831.3,212.5H831c-0.1,0-0.2,0-0.3-0.1c-16.5-8-28-27.1-28-46.4s11.5-38.3,28-46.4
			c0.1,0,0.2-0.1,0.3-0.1h0.3c0.3,0,0.6,0.2,0.7,0.5s0,0.6-0.2,0.8c-12.2,11.2-18.4,26.4-18.4,45.1c0,18.6,6.2,33.8,18.4,45.1
			c0.2,0.2,0.3,0.5,0.2,0.8C831.9,212.4,831.6,212.5,831.3,212.5z M827.3,123.3c-13.8,8.7-23.2,25.7-23.2,42.8
			c0,17.1,9.4,34.1,23.2,42.8c-10.3-11.2-15.4-25.6-15.4-42.8C812,148.8,817.1,134.4,827.3,123.3z"/>
	</g>
	<g>
		<path class="st0" d="M932.4,218.9v-2.1c1.8,0,3.8-0.1,5.5-0.9c4-1.7,7.9-6.8,7.9-9v-84c0-0.8-5.2-7.3-8.1-7.3
			c-1.8,0-3.6-0.1-5.4-0.1v-2.1h36.4c3.5,0,7.2-0.3,11.2-0.6c3.9-0.3,8.1-0.6,12.3-0.6c19.6,0,34.8,12.1,34.8,32.2
			c0,21.7-17.8,32.1-38.1,32.1c-10.3,0-16.2-2.1-24.4-5.2v35.2c0,5.9,5.1,10.3,10.6,10.3h2.8v2.1L932.4,218.9L932.4,218.9z
			 M964.9,216.8v-0.3l-5-3.6c-1.6-1.2-2.5-3.3-2.5-5.8v-85.8l8.4-5.5v-0.3h-22.5v0.3c2.4,1.4,5.4,3.8,7.5,5.8v2.2l-2.9,1.6v82
			c0,4-3.6,7-5.7,9v0.3h22.7V216.8z M964.6,168.8c7,2.9,14.2,5.5,21.7,5.5c14.1,0,22.5-14.1,22.5-30.7c0-14.4-8.7-29.4-22.3-29.4
			c-4.2,0-11.5,0.6-14.5,1.5c-2.5,0.8-7.3,5.4-7.3,9.4v43.7H964.6z M995.8,114.5l-0.3,0.3c8.2,3.3,15.4,14.7,15.4,29.1
			c0,12.3-3.9,23.1-14.1,29.5l0.3,0.3c14.7-3,24-14.7,24-30.1C1021.2,129.5,1010.1,116,995.8,114.5z"/>
		<path class="st0" d="M977.9,219.7h-45.5c-0.4,0-0.8-0.3-0.8-0.8v-2.1c0-0.4,0.3-0.8,0.8-0.8c1.8,0,3.6-0.1,5.2-0.8
			c3.8-1.6,7.5-6.4,7.5-8.3V123c-0.4-1-5-6.6-7.3-6.6c-0.9,0-1.8,0-2.7-0.1c-0.9,0-1.8,0-2.7,0c-0.4,0-0.8-0.3-0.8-0.8v-2.1
			c0-0.4,0.3-0.8,0.8-0.8h36.4c3.2,0,6.7-0.3,10.3-0.5l0.9-0.1c4-0.3,8.2-0.6,12.4-0.6c20.9,0,35.5,13.5,35.5,32.9
			c0,10.4-4.1,18.9-11.7,24.8c-6.8,5.2-16.5,8.1-27.1,8.1c-9.9,0-15.6-1.8-23.7-4.9v34.1c0,5.2,4.5,9.5,9.8,9.5h2.8
			c0.4,0,0.8,0.3,0.8,0.8v2.1C978.7,219.3,978.3,219.7,977.9,219.7z M933.2,218.2h44v-0.6h-2.1c-6.2,0-11.3-5.1-11.3-11v-35.2
			c0-0.2,0.1-0.5,0.3-0.6c0.2-0.1,0.5-0.2,0.7-0.1c8.4,3.2,14.1,5.2,24.1,5.2c17.2,0,37.3-8.2,37.3-31.4c0-18.8-13.7-31.4-34-31.4
			c-4.1,0-8.3,0.3-12.2,0.6l-0.9,0.1c-3.7,0.3-7.1,0.5-10.4,0.5H933v0.6c0.7,0,1.3,0,2,0c0.9,0,1.8,0,2.7,0c3.2,0,8.8,6.8,8.8,8v84
			c0,2.6-4.2,7.9-8.4,9.7c-1.6,0.7-3.3,0.9-5,1V218.2z M964.9,217.5c-0.1,0-0.3,0-0.4-0.1h-22.3c-0.4,0-0.8-0.3-0.8-0.8v-0.3
			c0-0.2,0.1-0.4,0.2-0.5l0.6-0.5c2.1-1.9,4.9-4.6,4.9-7.9v-82c0-0.3,0.1-0.5,0.4-0.7l2.5-1.4v-1.4c-1.9-1.8-4.8-4.1-7.1-5.5
			c-0.2-0.1-0.4-0.4-0.4-0.6v-0.3c0-0.4,0.3-0.8,0.8-0.8h22.5c0.4,0,0.8,0.3,0.8,0.8v0.3c0,0.3-0.1,0.5-0.3,0.6l-8.1,5.3v85.4
			c0,2.3,0.8,4.2,2.2,5.2l5,3.6c0.2,0.1,0.3,0.4,0.3,0.6v0.3C965.7,217.2,965.3,217.5,964.9,217.5z M942.2,216.4L942.2,216.4
			L942.2,216.4z M943.8,216h19.1l-3.4-2.4c-1.8-1.3-2.8-3.7-2.8-6.4v-85.8c0-0.3,0.1-0.5,0.3-0.6l6.8-4.4h-18.3
			c1.9,1.3,4.1,3.1,5.9,4.8c0.1,0.1,0.2,0.3,0.2,0.5v2.2c0,0.3-0.1,0.5-0.4,0.7l-2.5,1.4v81.6C948.7,211.1,945.9,214,943.8,216z
			 M986.3,175c-7.9,0-15.5-2.9-22-5.6c-0.3-0.1-0.5-0.5-0.4-0.8c0-0.1,0-0.2,0.1-0.2v-43.3c0-4.4,5.1-9.3,7.8-10.1
			c3.2-1,10.7-1.5,14.7-1.5c14.2,0,23,15.6,23,30.1C1009.5,162.1,1000,175,986.3,175z M965.5,168.3c6.2,2.6,13.4,5.2,20.8,5.2
			c12.8,0,21.8-12.3,21.8-29.9c0-13.8-8.2-28.6-21.5-28.6c-4.4,0-11.5,0.6-14.3,1.5c-2.3,0.7-6.8,5.1-6.8,8.7V168.3z M997.1,174.5
			c-0.2,0-0.4-0.1-0.5-0.2l-0.3-0.3c-0.2-0.2-0.2-0.4-0.2-0.6c0-0.2,0.2-0.4,0.3-0.6c9.1-5.7,13.7-15.4,13.7-28.9
			c0-14.7-7.5-25.4-14.9-28.4c-0.2-0.1-0.4-0.3-0.5-0.5c-0.1-0.2,0-0.5,0.2-0.7l0.3-0.3c0.2-0.2,0.4-0.2,0.6-0.2
			c14.4,1.5,26.1,14.9,26,29.9c0,15.7-9.7,27.8-24.6,30.8C997.2,174.4,997.1,174.5,997.1,174.5z M999,115.8
			c8.3,5.5,12.6,17.7,12.6,28.1c0,12.7-4,22.2-11.9,28.4c12.8-3.8,20.6-14.5,20.6-28.7C1020.4,130.6,1011.1,118.8,999,115.8z"/>
	</g>
</g>
<g>
	<g>
		<path class="st0" d="M240.5,321.2h-23.8v23.9h-8.2v-56h8.2V313h23.8v-23.9h8.2v56h-8.2V321.2z"/>
	</g>
	<g>
		<path class="st0" d="M311.5,331.3h-21.6l-5.3,13.8h-9l21.6-56h7l21.7,56h-9.1L311.5,331.3z M293,323.3h15.4l-7.7-20.3L293,323.3z"
			/>
	</g>
	<g>
		<path class="st0" d="M352.8,289.1h8.2v56h-8.2V289.1z"/>
	</g>
	<g>
		<path class="st0" d="M401.2,325.1v20h-8.1v-56h20.6c9.9,0,18.1,8.1,18.1,18.1c0,7.4-4.6,13.7-11,16.6c0.5,0.9,1,1.8,1.5,2.6
			c3.2,5.5,7.9,13.8,10.8,18.8h-9.4l-11.4-20h-11.1V325.1z M401.2,317h12.6c5.6,0,9.9-4.4,9.9-9.8c0-5.6-4.3-10-9.9-10h-12.6V317z"
			/>
	</g>
	<g>
		<path class="st0" d="M521,314.1c11.4,3.2,13.5,10.4,13.5,15.5c0,9-7,16.2-17.5,16.2c-10.8,0-17.6-6.1-17.6-17.4h8.2
			c0,5.1,2.5,9.7,9.4,9.7c4.4,0,9.4-2.2,9.4-8.6c0-4.2-3.7-6.6-7.4-7.7l-6.1-1.9c-11.4-3.2-13.5-10.4-13.5-15.5
			c0-9,7-16.2,17.5-16.2c10.8,0,17.6,6.1,17.6,17.4h-8.2c0-5.1-2.5-9.7-9.4-9.7c-4.4,0-9.4,2.2-9.4,8.6c0,4.2,3.7,6.6,7.4,7.7
			L521,314.1z"/>
	</g>
	<g>
		<path class="st0" d="M594.3,331.3h-21.6l-5.3,13.8h-9l21.6-56h7l21.7,56h-9.1L594.3,331.3z M575.8,323.3h15.4l-7.7-20.3
			L575.8,323.3z"/>
	</g>
	<g>
		<path class="st0" d="M635.6,289.1h8.1V337h25.4v8.1h-33.4L635.6,289.1L635.6,289.1z"/>
	</g>
	<g>
		<path class="st0" d="M720.6,288.5c15.8,0,28.6,12.8,28.6,28.6c0,15.8-12.8,28.6-28.6,28.6S692,332.9,692,317.1
			S704.8,288.5,720.6,288.5z M720.6,337.3c11.1,0,20.2-9.1,20.2-20.2s-9.1-20.2-20.2-20.2c-11.1,0-20.2,9.1-20.2,20.2
			C700.3,328.2,709.5,337.3,720.6,337.3z"/>
	</g>
	<g>
		<path class="st0" d="M786.5,305.5v39.6h-8.2v-56h7.4l24.6,39.8v-39.8h8.2v56h-7.4L786.5,305.5z"/>
	</g>
</g>
<g>
	<g>
		<path class="st0" d="M280.7,34.9l-10.2-10.2l10.2-10.2l10.2,10.2L280.7,34.9z M276.2,24.7l4.5,4.5l4.5-4.5l-4.5-4.5L276.2,24.7z"
			/>
	</g>
</g>
<g>
	<g>
		<path class="st0" d="M746.3,34.9l-10.2-10.2l10.2-10.2l10.2,10.2L746.3,34.9z M741.8,24.7l4.5,4.5l4.5-4.5l-4.5-4.5L741.8,24.7z"
			/>
	</g>
</g>
</svg>
